<svg width="50" height="50" viewBox="0 0 50 50" fill="none" xmlns="http://www.w3.org/2000/svg">
<circle cx="25" cy="25" r="24.5" fill="white" stroke="black"/>
<path d="M23.2203 8.73119V8.37601L22.8849 8.25907C22.526 8.13393 21.9315 7.94867 21.2993 7.79408C20.6765 7.64179 19.9767 7.50896 19.4238 7.50903C19.3606 7.50903 19.2836 7.5072 19.1949 7.50508C18.5084 7.48871 17.1158 7.45549 15.8903 8.12816C15.1789 8.51862 14.5279 9.14022 14.0822 10.1041C13.6408 11.0583 13.4122 12.3227 13.4921 13.9901L13.4933 14.084H12H11.5V14.584V17.584V18.084H12H13.4997L13.4919 29.5836L13.4916 30.084H13.9919H17.8851H18.3851V29.584V18.2422H23.5V29.584V30.084H24H28H28.5V29.584V18.2422H33.5V29.584V30.084H34H38H38.5V29.584V14.584V14.084H38H31.9748H23H18.5V13.584V13.5445L18.4938 13.5054C18.475 13.3874 18.4993 12.9429 18.6883 12.461C18.8731 11.9899 19.1712 11.5945 19.6046 11.4265C20.0845 11.2405 20.6443 11.2695 21.1853 11.4136C21.7234 11.557 22.1888 11.8004 22.4395 11.9705L23.2203 12.5006V11.5569V8.73119ZM33.4472 37.8076L33.5005 37.701L33.5 37.5819L33.4748 31.5819L33.4727 31.084H32.9748H29H28.5V31.584V37.084H23.5V31.584V31.084H23H19H18.5V31.584V37.584V37.702L18.5528 37.8076L20.5528 41.8076L20.691 42.084H21H31H31.309L31.4472 41.8076L33.4472 37.8076Z" fill="url(#paint0_linear_1697_9)" stroke="black"/>
<defs>
<linearGradient id="paint0_linear_1697_9" x1="25" y1="8" x2="25" y2="41.584" gradientUnits="userSpaceOnUse">
<stop stop-color="#25A3FF"/>
<stop offset="1" stop-color="#1729CD"/>
</linearGradient>
</defs>
</svg>
